<svg width="195" height="109" viewBox="0 0 195 109" fill="none" xmlns="http://www.w3.org/2000/svg">
<g clip-path="url(#clip0_5_5)">
<path d="M97.4188 80.3053C97.3808 80.3022 97.3454 80.2865 97.3197 80.2612C97.294 80.2359 97.2798 80.2029 97.2799 80.1687V74.3822C97.2799 74.346 97.2639 74.3113 97.2353 74.2857C97.2067 74.26 97.1679 74.2457 97.1274 74.2457L95.1175 74.2481C95.0771 74.2481 95.0383 74.2625 95.0097 74.2881C94.9811 74.3137 94.965 74.3484 94.965 74.3846V82.1268C94.9648 82.161 94.979 82.194 95.0048 82.2193C95.0305 82.2446 95.0659 82.2603 95.1039 82.2634L191.618 89.3106C191.639 89.3123 191.66 89.31 191.681 89.3039C191.701 89.2978 191.719 89.288 191.735 89.2752C191.75 89.2623 191.763 89.2467 191.771 89.2292C191.78 89.2118 191.784 89.193 191.784 89.174V12.6546C191.784 12.6355 191.78 12.6167 191.771 12.5993C191.763 12.5819 191.75 12.5663 191.735 12.5534C191.719 12.5406 191.701 12.5308 191.681 12.5247C191.66 12.5186 191.639 12.5163 191.618 12.518L95.1039 19.5628C95.0659 19.5658 95.0305 19.5815 95.0048 19.6068C94.979 19.6321 94.9648 19.6651 94.965 19.6993V27.4342C94.965 27.4704 94.9811 27.5051 95.0097 27.5307C95.0383 27.5563 95.0771 27.5707 95.1175 27.5707L97.1274 27.5878C97.1475 27.5878 97.1673 27.5843 97.1858 27.5774C97.2043 27.5705 97.2211 27.5605 97.2353 27.5478C97.2494 27.5351 97.2607 27.5201 97.2683 27.5035C97.276 27.4869 97.2799 27.4692 97.2799 27.4512V21.655C97.2798 21.6208 97.294 21.5878 97.3197 21.5625C97.3454 21.5372 97.3808 21.5215 97.4188 21.5184L189.069 14.7833C189.09 14.7817 189.111 14.7839 189.131 14.79C189.152 14.7961 189.17 14.8059 189.186 14.8188C189.201 14.8316 189.214 14.8473 189.222 14.8647C189.231 14.8821 189.235 14.9009 189.235 14.9199V86.8453C189.235 86.8643 189.231 86.8831 189.222 86.9005C189.214 86.9179 189.201 86.9336 189.186 86.9464C189.17 86.9593 189.152 86.9691 189.131 86.9752C189.111 86.9812 189.09 86.9835 189.069 86.9818L97.4188 80.3053Z" fill="#012D46" stroke="#012D46" stroke-width="0.740223"/>
<path d="M103.35 32.2343C103.319 37.8671 103.311 43.4984 103.326 49.128C103.331 50.9179 103.641 53.4515 105.924 54.2879C107.049 54.7008 108.555 54.9462 110.442 55.0243C110.52 55.0275 110.56 54.9942 110.562 54.9243L110.603 52.0542C110.604 51.9485 110.546 51.8876 110.428 51.8713L107.776 51.5275C107.672 51.5145 107.617 51.4608 107.61 51.3666C107.057 44.0194 107.264 36.6772 107.381 29.3105C107.381 29.2919 107.377 29.2733 107.369 29.256C107.362 29.2387 107.35 29.223 107.335 29.2098C107.321 29.1966 107.303 29.1862 107.284 29.1792C107.264 29.1722 107.244 29.1688 107.223 29.1691L100.624 29.2252C100.531 29.2259 100.441 29.2536 100.368 29.3041C100.294 29.3547 100.241 29.4254 100.215 29.5056L99.5072 31.7197C99.4745 31.8222 99.5181 31.8774 99.6379 31.8856L103.211 32.1001C103.304 32.1066 103.35 32.1513 103.35 32.2343Z" stroke="#A7DEDB" stroke-width="0.740223"/>
<path d="M13.0345 51.6787C13.0345 51.7145 13.0188 51.7488 12.9908 51.7744C12.9628 51.7999 12.9247 51.8146 12.8847 51.8152L9.64651 51.8567C9.60654 51.8573 9.56844 51.872 9.54043 51.8975C9.51241 51.9231 9.49672 51.9574 9.49672 51.9932L9.49128 54.7292C9.49128 54.7654 9.50735 54.8002 9.53595 54.8258C9.56455 54.8514 9.60334 54.8658 9.64379 54.8658H30.7588C30.7993 54.8658 30.8381 54.8514 30.8667 54.8258C30.8953 54.8002 30.9113 54.7654 30.9113 54.7292V48.7842C30.9113 48.748 30.8953 48.7132 30.8667 48.6876C30.8381 48.662 30.7993 48.6476 30.7588 48.6476L27.3899 48.6501C27.3494 48.6501 27.3106 48.6645 27.282 48.6901C27.2534 48.7157 27.2374 48.7504 27.2374 48.7866L27.2319 51.6835C27.2319 51.7198 27.2159 51.7545 27.1873 51.7801C27.1586 51.8057 27.1199 51.8201 27.0794 51.8201L17.2395 51.8177C17.1991 51.8177 17.1603 51.8033 17.1317 51.7777C17.1031 51.7521 17.087 51.7173 17.087 51.6811L17.1415 43.5415C17.1415 43.5053 17.1576 43.4705 17.1862 43.4449C17.2148 43.4193 17.2536 43.4049 17.294 43.4049L27.014 43.4025C27.0536 43.4025 27.0916 43.3888 27.12 43.3642C27.1485 43.3397 27.1651 43.3062 27.1666 43.2708L27.2891 40.5251C27.2898 40.5067 27.2864 40.4884 27.2791 40.4713C27.2718 40.4542 27.2607 40.4385 27.2464 40.4253C27.2322 40.4121 27.2151 40.4016 27.1963 40.3945C27.1774 40.3873 27.1571 40.3836 27.1366 40.3836L17.2423 40.4178C17.2222 40.4178 17.2024 40.4142 17.1839 40.4074C17.1654 40.4005 17.1486 40.3905 17.1344 40.3778C17.1202 40.3651 17.109 40.35 17.1014 40.3335C17.0937 40.3169 17.0897 40.2992 17.0897 40.2812V32.3586C17.0897 32.3407 17.0937 32.3229 17.1014 32.3064C17.109 32.2898 17.1202 32.2747 17.1344 32.262C17.1486 32.2494 17.1654 32.2393 17.1839 32.2324C17.2024 32.2256 17.2222 32.2221 17.2423 32.2221L26.4258 32.2172C26.4658 32.2172 26.5041 32.2312 26.5327 32.2563C26.5612 32.2814 26.5776 32.3155 26.5783 32.3513L26.6491 35.0653C26.6498 35.1011 26.6662 35.1352 26.6947 35.1603C26.7232 35.1854 26.7616 35.1994 26.8016 35.1994L30.0099 35.2068C30.0503 35.2068 30.0891 35.1924 30.1177 35.1668C30.1463 35.1411 30.1624 35.1064 30.1624 35.0702V29.3154C30.1624 29.2792 30.1463 29.2444 30.1177 29.2188C30.0891 29.1932 30.0503 29.1788 30.0099 29.1788L9.98695 29.252C9.9536 29.252 9.92116 29.2617 9.8946 29.2798C9.86803 29.2978 9.84881 29.3232 9.83988 29.352L9.09638 31.6978C9.09025 31.7173 9.08906 31.7378 9.09289 31.7578C9.09672 31.7778 9.10548 31.7967 9.11852 31.8133C9.13156 31.8299 9.14855 31.8437 9.16828 31.8536C9.188 31.8636 9.20996 31.8695 9.23255 31.8709L12.8956 32.1123C12.9341 32.1148 12.9702 32.1303 12.9965 32.1556C13.0228 32.181 13.0373 32.2143 13.0372 32.2489L13.0345 51.6787Z" stroke="#A7DEDB" stroke-width="0.740223"/>
<path d="M126.282 43.3731C121.586 43.7511 112.58 43.8682 113.133 50.1424C113.285 51.8761 114.421 53.6172 116.104 54.4316C120.099 56.3702 123.389 54.5731 126.325 52.1834C126.344 52.1684 126.367 52.1584 126.392 52.1545C126.417 52.1506 126.442 52.1529 126.466 52.1613C126.489 52.1696 126.51 52.1836 126.525 52.2017C126.54 52.2198 126.549 52.2413 126.551 52.2638L126.75 54.3341C126.755 54.376 126.775 54.4151 126.808 54.4445C126.841 54.4738 126.884 54.4917 126.93 54.495L132.976 54.9876C133.127 54.999 133.203 54.9372 133.205 54.8023L133.254 52.198C133.254 52.1665 133.242 52.1359 133.218 52.1127C133.194 52.0895 133.161 52.0755 133.126 52.0736L130.454 51.8932C130.383 51.8882 130.316 51.8583 130.269 51.8099C130.223 51.7616 130.199 51.6986 130.203 51.6347C130.412 48.5687 130.374 45.5076 130.089 42.4514C129.879 40.2251 129.275 38.3231 127.248 37.1867C123.373 35.0165 118.177 36.1772 114.478 38.0938C114.405 38.1312 114.388 38.1832 114.426 38.2499L115.614 40.2909C115.649 40.3516 115.71 40.3978 115.782 40.42C115.854 40.4423 115.934 40.4388 116.003 40.4104C118.168 39.5325 124.065 37.533 125.418 40.3836C125.856 41.3069 126.186 42.2531 126.41 43.222C126.43 43.3146 126.387 43.365 126.282 43.3731Z" stroke="#A7DEDB" stroke-width="0.740223"/>
<path d="M46.6393 49.4499C47.0751 52.4687 42.3962 52.6419 40.2828 52.0225C38.7957 51.586 38.2374 50.3595 37.4395 49.0329C37.4139 48.9908 37.3761 48.9557 37.3301 48.9312C37.2841 48.9067 37.2315 48.8938 37.178 48.8939L34.3865 48.8915C34.2902 48.8915 34.2448 48.9346 34.2503 49.0207C34.3565 50.8203 34.8903 52.9491 36.6415 53.9733C37.1735 54.2838 38.0041 54.5805 39.1335 54.8633C42.2055 55.6315 46.2689 55.4949 48.7881 53.5124C52.0999 50.9081 50.9015 46.6505 47.0152 45.2313C45.1959 44.5681 43.3757 43.9105 41.5546 43.2586C40.5905 42.9124 39.4657 42.2905 39.3268 41.3151C39.0354 39.2912 42.3036 38.7426 43.8641 39.0522C45.3484 39.3449 46.3234 40.5568 46.9307 41.7272C46.9787 41.8183 47.0546 41.8954 47.1496 41.9493C47.2446 42.0033 47.3548 42.032 47.4673 42.0321L50.1689 42.0296C50.2615 42.0296 50.3024 41.9882 50.2915 41.9053C50.1299 40.7169 49.8839 39.7342 49.5534 38.9571C48.287 35.9627 42.9844 35.714 39.9941 36.3724C36.3882 37.1673 33.6893 40.5324 36.1731 43.6683C36.774 44.4275 37.523 44.9867 38.4199 45.346C41.1679 46.4506 44.259 47.4235 46.5304 49.2646C46.5921 49.315 46.6284 49.3768 46.6393 49.4499Z" stroke="#A7DEDB" stroke-width="0.740223"/>
<path d="M68.999 40.1129L69.3122 42.2588C69.323 42.3342 69.3654 42.4033 69.4311 42.4521C69.4967 42.5009 69.5807 42.5259 69.6662 42.5221L72.9807 42.3539C73.0751 42.349 73.1159 42.3043 73.1032 42.2198C72.9316 41.0688 72.3216 38.1768 71.0878 37.5525C67.3803 35.6781 63.6719 35.5229 59.9625 37.0868C55.2101 39.0888 53.0367 43.4609 54.2269 47.9453C55.3953 52.3541 60.0796 55.29 65.1289 55.2315C67.9504 55.1998 70.8101 54.1683 73.204 52.7589C73.2966 52.7036 73.3175 52.6321 73.2666 52.5443L71.9539 50.2497C71.9394 50.2248 71.9195 50.2028 71.8953 50.1849C71.8712 50.1671 71.8432 50.1536 71.8131 50.1455C71.7829 50.1373 71.7512 50.1346 71.7198 50.1374C71.6883 50.1402 71.6578 50.1485 71.6298 50.1619C70.2754 50.8154 68.8446 51.3445 67.3376 51.7493C61.7082 53.2588 57.013 49.2426 58.1242 44.1291C59.2135 39.1058 64.1866 38.4377 68.8247 39.9203C68.9263 39.9528 68.9844 40.017 68.999 40.1129Z" stroke="#A7DEDB" stroke-width="0.740223"/>
<path d="M98.3061 45.6359C98.3012 43.1027 97.1329 40.6751 95.0583 38.8871C92.9838 37.099 90.1728 36.0971 87.2439 36.1017C84.3149 36.1063 81.5079 37.117 79.4403 38.9115C77.3727 40.706 76.214 43.1373 76.2189 45.6705C76.2238 48.2037 77.3921 50.6313 79.4667 52.4193C81.5412 54.2073 84.3522 55.2093 87.2811 55.2047C90.2101 55.2001 93.0171 54.1894 95.0847 52.3949C97.1523 50.6004 98.3111 48.1691 98.3061 45.6359Z" stroke="#A7DEDB" stroke-width="0.740223"/>
<path d="M151.406 52.4931C151.242 54.0927 150.844 56.1678 149.861 57.4042C147.516 60.3498 142.219 59.0623 139.068 58.3454C139.019 58.3347 138.967 58.3398 138.922 58.36C138.877 58.3801 138.842 58.4139 138.823 58.4551L137.701 60.9204C137.693 60.9387 137.689 60.9583 137.689 60.9779C137.69 60.9975 137.694 61.0168 137.703 61.0347C137.711 61.0526 137.724 61.0688 137.739 61.0822C137.755 61.0957 137.773 61.1062 137.794 61.1131C139.72 61.7747 141.858 62.1649 144.207 62.2835C149.366 62.5445 154.453 60.3474 154.881 55.2339C155.314 50.0668 155.118 44.7972 155.069 39.6398C155.068 39.5837 155.092 39.5296 155.135 39.4888C155.179 39.448 155.237 39.4235 155.3 39.4204L158.081 39.3009C158.122 39.299 158.161 39.2828 158.189 39.2555C158.218 39.2283 158.233 39.1922 158.233 39.1546V36.3942C158.233 36.3081 158.185 36.2658 158.089 36.2674C155.635 36.2796 153.01 36.4991 151.013 37.9231C150.941 37.9752 150.864 37.9809 150.782 37.9402C149.665 37.3916 148.426 36.7746 147.263 36.482C144.235 35.7131 141.583 36.1683 139.308 37.8476C134.011 41.7589 134.781 50.8837 140.999 53.7781C144.796 55.5436 147.87 54.2853 151.261 52.4126C151.276 52.4044 151.294 52.4001 151.311 52.4002C151.329 52.4003 151.346 52.4048 151.361 52.4131C151.376 52.4215 151.388 52.4333 151.396 52.4475C151.404 52.4616 151.407 52.4773 151.406 52.4931Z" stroke="#A7DEDB" stroke-width="0.740223"/>
<path d="M182.94 45.5175C182.923 44.262 182.62 43.0219 182.048 41.868C181.476 40.7142 180.647 39.6691 179.608 38.7926C178.569 37.916 177.34 37.2252 175.992 36.7594C174.644 36.2936 173.202 36.062 171.75 36.0779C170.298 36.0938 168.863 36.3568 167.528 36.852C166.193 37.3471 164.983 38.0647 163.968 38.9637C162.953 39.8627 162.153 40.9256 161.613 42.0916C161.073 43.2576 160.804 44.5039 160.821 45.7595C160.838 47.015 161.142 48.2551 161.713 49.4089C162.285 50.5628 163.114 51.6078 164.153 52.4844C165.192 53.3609 166.421 54.0518 167.769 54.5176C169.117 54.9834 170.559 55.2149 172.011 55.199C173.463 55.1832 174.898 54.9201 176.233 54.425C177.568 53.9299 178.778 53.2123 179.793 52.3133C180.808 51.4143 181.608 50.3514 182.148 49.1854C182.688 48.0194 182.957 46.773 182.94 45.5175Z" stroke="#A7DEDB" stroke-width="0.740223"/>
<path d="M120.271 52.4077C124.71 52.693 126.148 48.6402 126.682 45.5921C126.691 45.5369 126.665 45.51 126.603 45.5117C124.138 45.6141 117.776 45.8335 117.087 48.7231C116.654 50.5349 118.228 52.276 120.271 52.4077Z" stroke="#A7DEDB" stroke-width="0.740223"/>
<path d="M87.3252 52.1633C88.2518 52.1532 89.167 51.9728 90.0185 51.6323C90.8701 51.2918 91.6413 50.7981 92.2882 50.1791C92.935 49.5602 93.4449 48.8282 93.7885 48.025C94.1322 47.2218 94.303 46.3631 94.2912 45.4979C94.2794 44.6327 94.0852 43.778 93.7197 42.9825C93.3542 42.1871 92.8246 41.4665 92.161 40.8619C91.4975 40.2573 90.713 39.7805 89.8524 39.4587C88.9918 39.137 88.072 38.9766 87.1454 38.9868C86.2188 38.9969 85.3036 39.1774 84.452 39.5178C83.6004 39.8583 82.8292 40.3521 82.1824 40.971C81.5355 41.59 81.0257 42.3219 80.682 43.1251C80.3383 43.9283 80.1675 44.7871 80.1793 45.6522C80.1911 46.5174 80.3853 47.3721 80.7508 48.1676C81.1163 48.963 81.6459 49.6836 82.3095 50.2883C82.9731 50.8929 83.7575 51.3697 84.6181 51.6914C85.4787 52.0131 86.3986 52.1735 87.3252 52.1633Z" stroke="#A7DEDB" stroke-width="0.740223"/>
<path d="M143.513 51.1055C145.525 51.759 147.317 51.5737 148.889 50.5496C150.194 49.7034 150.662 48.628 150.967 47.2332C151.623 44.2388 151.011 39.7837 146.942 39.1326C144.787 38.788 143.027 39.2236 141.664 40.4396C138.78 43.0098 139.232 49.7156 143.513 51.1055Z" stroke="#A7DEDB" stroke-width="0.740223"/>
<path d="M172.106 52.1582C173.978 52.1055 175.749 51.3622 177.029 50.0918C178.31 48.8213 178.995 47.1278 178.934 45.3838C178.903 44.5203 178.691 43.6703 178.308 42.8825C177.925 42.0947 177.38 41.3844 176.703 40.7922C176.026 40.2 175.231 39.7376 174.363 39.4312C173.495 39.1248 172.571 38.9806 171.644 39.0067C169.772 39.0593 168.001 39.8027 166.721 41.0731C165.44 42.3435 164.755 44.037 164.817 45.781C164.847 46.6446 165.06 47.4945 165.442 48.2824C165.825 49.0702 166.37 49.7805 167.047 50.3727C167.724 50.9648 168.519 51.4273 169.387 51.7337C170.255 52.04 171.179 52.1843 172.106 52.1582Z" stroke="#A7DEDB" stroke-width="0.740223"/>
<path d="M0 0H195V109H0V0ZM97.5027 80.0675C97.4647 80.0644 97.4293 80.0487 97.4036 80.0234C97.3779 79.9981 97.3637 79.9651 97.3638 79.9309V74.1444C97.3638 74.1082 97.3478 74.0734 97.3192 74.0478C97.2906 74.0222 97.2518 74.0078 97.2113 74.0078L95.2014 74.0103C95.1609 74.0103 95.1222 74.0247 95.0936 74.0503C95.065 74.0759 95.0489 74.1106 95.0489 74.1468V81.889C95.0487 81.9232 95.0629 81.9562 95.0886 81.9815C95.1144 82.0068 95.1497 82.0225 95.1878 82.0256L191.702 89.0728C191.723 89.0744 191.744 89.0722 191.764 89.0661C191.785 89.06 191.803 89.0502 191.819 89.0373C191.834 89.0245 191.847 89.0088 191.855 88.9914C191.864 88.974 191.868 88.9552 191.868 88.9362V12.4167C191.868 12.3977 191.864 12.3789 191.855 12.3615C191.847 12.3441 191.834 12.3284 191.819 12.3156C191.803 12.3027 191.785 12.293 191.764 12.2869C191.744 12.2808 191.723 12.2785 191.702 12.2802L95.1878 19.3249C95.1497 19.328 95.1144 19.3437 95.0886 19.369C95.0629 19.3943 95.0487 19.4273 95.0489 19.4615V27.1964C95.0489 27.2326 95.065 27.2673 95.0936 27.2929C95.1222 27.3185 95.1609 27.3329 95.2014 27.3329L97.2113 27.35C97.2313 27.35 97.2512 27.3464 97.2697 27.3396C97.2882 27.3327 97.305 27.3227 97.3192 27.31C97.3333 27.2973 97.3446 27.2822 97.3522 27.2657C97.3599 27.2491 97.3638 27.2314 97.3638 27.2134V21.4172C97.3637 21.383 97.3779 21.35 97.4036 21.3247C97.4293 21.2994 97.4647 21.2837 97.5027 21.2806L189.153 14.5455C189.174 14.5438 189.195 14.5461 189.215 14.5522C189.235 14.5583 189.254 14.5681 189.27 14.5809C189.285 14.5938 189.298 14.6094 189.306 14.6268C189.315 14.6443 189.319 14.6631 189.319 14.6821V86.6075C189.319 86.6265 189.315 86.6453 189.306 86.6627C189.298 86.6801 189.285 86.6957 189.27 86.7086C189.254 86.7214 189.235 86.7312 189.215 86.7373C189.195 86.7434 189.174 86.7457 189.153 86.744L97.5027 80.0675ZM103.35 32.2343C103.319 37.8671 103.311 43.4984 103.325 49.128C103.331 50.9179 103.641 53.4515 105.924 54.2879C107.049 54.7008 108.555 54.9462 110.442 55.0243C110.52 55.0275 110.56 54.9942 110.562 54.9243L110.603 52.0542C110.604 51.9485 110.546 51.8876 110.428 51.8713L107.776 51.5275C107.672 51.5145 107.617 51.4608 107.609 51.3666C107.057 44.0194 107.264 36.6772 107.381 29.3105C107.381 29.2918 107.377 29.2733 107.369 29.256C107.362 29.2387 107.35 29.223 107.335 29.2098C107.321 29.1966 107.303 29.1862 107.284 29.1792C107.264 29.1722 107.244 29.1688 107.223 29.1691L100.624 29.2252C100.531 29.2259 100.441 29.2536 100.368 29.3041C100.294 29.3547 100.241 29.4254 100.215 29.5056L99.5072 31.7197C99.4745 31.8221 99.5181 31.8774 99.6379 31.8855L103.211 32.1001C103.304 32.1066 103.35 32.1513 103.35 32.2343ZM13.0345 51.6787C13.0345 51.7145 13.0188 51.7488 12.9908 51.7744C12.9628 51.7999 12.9247 51.8146 12.8847 51.8152L9.64651 51.8567C9.60653 51.8573 9.56844 51.872 9.54042 51.8975C9.51241 51.9231 9.49671 51.9574 9.49672 51.9932L9.49127 54.7292C9.49127 54.7654 9.50734 54.8002 9.53594 54.8258C9.56454 54.8514 9.60334 54.8658 9.64379 54.8658H30.7588C30.7992 54.8658 30.838 54.8514 30.8666 54.8258C30.8952 54.8002 30.9113 54.7654 30.9113 54.7292V48.7842C30.9113 48.748 30.8952 48.7133 30.8666 48.6876C30.838 48.662 30.7992 48.6477 30.7588 48.6477L27.3899 48.6501C27.3494 48.6501 27.3106 48.6645 27.282 48.6901C27.2534 48.7157 27.2374 48.7504 27.2374 48.7866L27.2319 51.6836C27.2319 51.7198 27.2158 51.7545 27.1872 51.7801C27.1586 51.8057 27.1199 51.8201 27.0794 51.8201L17.2395 51.8177C17.1991 51.8177 17.1603 51.8033 17.1317 51.7777C17.1031 51.7521 17.087 51.7173 17.087 51.6811L17.1415 43.5415C17.1415 43.5053 17.1575 43.4705 17.1862 43.4449C17.2148 43.4193 17.2535 43.4049 17.294 43.4049L27.014 43.4025C27.0536 43.4025 27.0915 43.3888 27.12 43.3642C27.1484 43.3397 27.1651 43.3062 27.1666 43.2708L27.2891 40.5251C27.2898 40.5067 27.2864 40.4885 27.2791 40.4713C27.2718 40.4542 27.2606 40.4386 27.2464 40.4254C27.2322 40.4121 27.2151 40.4017 27.1962 40.3945C27.1774 40.3873 27.1571 40.3836 27.1366 40.3836L17.2423 40.4178C17.2222 40.4178 17.2024 40.4143 17.1839 40.4074C17.1654 40.4005 17.1486 40.3905 17.1344 40.3778C17.1202 40.3651 17.109 40.3501 17.1013 40.3335C17.0937 40.3169 17.0897 40.2992 17.0897 40.2812V32.3586C17.0897 32.3407 17.0937 32.3229 17.1013 32.3064C17.109 32.2898 17.1202 32.2747 17.1344 32.2621C17.1486 32.2494 17.1654 32.2393 17.1839 32.2325C17.2024 32.2256 17.2222 32.2221 17.2423 32.2221L26.4258 32.2172C26.4657 32.2172 26.5041 32.2312 26.5327 32.2563C26.5612 32.2814 26.5776 32.3155 26.5783 32.3513L26.6491 35.0653C26.6498 35.1011 26.6662 35.1352 26.6947 35.1603C26.7232 35.1854 26.7616 35.1994 26.8016 35.1994L30.0098 35.2068C30.0503 35.2068 30.0891 35.1924 30.1177 35.1668C30.1463 35.1412 30.1624 35.1064 30.1624 35.0702V29.3154C30.1624 29.2792 30.1463 29.2444 30.1177 29.2188C30.0891 29.1932 30.0503 29.1788 30.0098 29.1788L9.98694 29.252C9.95359 29.252 9.92115 29.2617 9.89459 29.2798C9.86803 29.2978 9.84881 29.3232 9.83988 29.352L9.09637 31.6978C9.09025 31.7173 9.08906 31.7378 9.09289 31.7578C9.09672 31.7778 9.10547 31.7967 9.11851 31.8133C9.13155 31.8299 9.14855 31.8437 9.16827 31.8536C9.188 31.8636 9.20995 31.8695 9.23254 31.8709L12.8956 32.1123C12.9341 32.1148 12.9702 32.1303 12.9965 32.1556C13.0228 32.181 13.0373 32.2143 13.0372 32.2489L13.0345 51.6787ZM126.282 43.3732C121.586 43.7512 112.58 43.8682 113.133 50.1424C113.285 51.8762 114.421 53.6173 116.104 54.4317C120.099 56.3703 123.389 54.5732 126.325 52.1834C126.344 52.1685 126.367 52.1584 126.392 52.1545C126.417 52.1506 126.442 52.153 126.466 52.1613C126.489 52.1697 126.51 52.1837 126.525 52.2018C126.54 52.2199 126.549 52.2414 126.551 52.2639L126.75 54.3342C126.755 54.3761 126.775 54.4151 126.808 54.4445C126.841 54.4739 126.884 54.4918 126.93 54.4951L132.976 54.9877C133.127 54.9991 133.203 54.9373 133.205 54.8024L133.254 52.1981C133.254 52.1665 133.242 52.136 133.218 52.1128C133.194 52.0896 133.161 52.0756 133.126 52.0737L130.454 51.8933C130.383 51.8883 130.316 51.8584 130.269 51.81C130.223 51.7616 130.199 51.6987 130.203 51.6348C130.412 48.5688 130.374 45.5077 130.089 42.4515C129.879 40.2251 129.275 38.3231 127.248 37.1868C123.373 35.0166 118.177 36.1773 114.478 38.0939C114.405 38.1313 114.388 38.1833 114.426 38.25L115.614 40.291C115.649 40.3517 115.71 40.3979 115.782 40.4201C115.854 40.4423 115.934 40.4389 116.003 40.4105C118.168 39.5326 124.065 37.5331 125.418 40.3836C125.856 41.307 126.186 42.2531 126.41 43.222C126.43 43.3147 126.387 43.3651 126.282 43.3732ZM46.6393 49.4499C47.0751 52.4687 42.3962 52.6419 40.2828 52.0225C38.7957 51.586 38.2374 50.3595 37.4395 49.0329C37.4139 48.9908 37.3761 48.9557 37.3301 48.9312C37.2841 48.9067 37.2315 48.8938 37.178 48.8939L34.3865 48.8915C34.2902 48.8915 34.2448 48.9346 34.2503 49.0207C34.3565 50.8203 34.8903 52.9491 36.6415 53.9733C37.1735 54.2838 38.0041 54.5805 39.1335 54.8633C42.2055 55.6315 46.2689 55.4949 48.7881 53.5124C52.0999 50.9081 50.9015 46.6505 47.0152 45.2313C45.1959 44.5681 43.3757 43.9105 41.5546 43.2586C40.5905 42.9123 39.4657 42.2905 39.3268 41.3151C39.0354 39.2912 42.3036 38.7425 43.8641 39.0522C45.3484 39.3449 46.3234 40.5568 46.9307 41.7272C46.9787 41.8183 47.0546 41.8954 47.1496 41.9493C47.2446 42.0033 47.3548 42.032 47.4672 42.0321L50.1689 42.0296C50.2615 42.0296 50.3024 41.9882 50.2915 41.9053C50.1299 40.7169 49.8839 39.7342 49.5534 38.9571C48.287 35.9627 42.9844 35.714 39.9941 36.3723C36.3882 37.1673 33.6892 40.5324 36.173 43.6683C36.774 44.4275 37.523 44.9867 38.4199 45.346C41.1679 46.4506 44.259 47.4235 46.5304 49.2646C46.5921 49.315 46.6284 49.3768 46.6393 49.4499ZM68.999 40.113L69.3122 42.2588C69.323 42.3343 69.3654 42.4033 69.4311 42.4521C69.4967 42.5009 69.5807 42.526 69.6662 42.5222L72.9807 42.3539C73.0751 42.3491 73.1159 42.3044 73.1032 42.2198C72.9316 41.0689 72.3216 38.1768 71.0878 37.5526C67.3803 35.6782 63.6719 35.5229 59.9625 37.0868C55.2101 39.0888 53.0367 43.461 54.2269 47.9454C55.3953 52.3541 60.0796 55.2901 65.1289 55.2315C67.9504 55.1998 70.8101 54.1684 73.204 52.7589C73.2966 52.7037 73.3175 52.6321 73.2666 52.5443L71.9539 50.2497C71.9394 50.2249 71.9195 50.2029 71.8953 50.185C71.8712 50.1671 71.8432 50.1537 71.8131 50.1455C71.7829 50.1374 71.7512 50.1346 71.7198 50.1374C71.6883 50.1403 71.6578 50.1486 71.6298 50.1619C70.2754 50.8155 68.8446 51.3446 67.3376 51.7494C61.7082 53.2588 57.013 49.2426 58.1242 44.1292C59.2136 39.1059 64.1866 38.4377 68.8247 39.9203C68.9263 39.9529 68.9844 40.0171 68.999 40.113ZM98.3061 45.6359C98.3012 43.1027 97.1329 40.6751 95.0583 38.8871C92.9838 37.099 90.1728 36.0971 87.2439 36.1017C84.3149 36.1063 81.5079 37.117 79.4403 38.9115C77.3727 40.706 76.214 43.1373 76.2189 45.6705C76.2238 48.2037 77.3921 50.6313 79.4667 52.4193C81.5412 54.2073 84.3522 55.2093 87.2811 55.2047C90.2101 55.2001 93.0171 54.1894 95.0847 52.3949C97.1523 50.6004 98.3111 48.1691 98.3061 45.6359ZM151.406 52.4931C151.242 54.0928 150.844 56.1679 149.861 57.4042C147.516 60.3499 142.219 59.0624 139.068 58.3455C139.019 58.3347 138.967 58.3399 138.922 58.3601C138.877 58.3802 138.842 58.414 138.823 58.4552L137.701 60.9205C137.693 60.9388 137.689 60.9583 137.689 60.9779C137.69 60.9976 137.694 61.0169 137.703 61.0348C137.711 61.0527 137.724 61.0689 137.739 61.0823C137.755 61.0958 137.773 61.1062 137.794 61.1132C139.72 61.7748 141.858 62.165 144.207 62.2836C149.366 62.5445 154.453 60.3475 154.881 55.234C155.314 50.0668 155.118 44.7973 155.069 39.6399C155.068 39.5838 155.092 39.5297 155.135 39.4889C155.179 39.4481 155.237 39.4236 155.3 39.4204L158.081 39.301C158.122 39.2991 158.161 39.2828 158.189 39.2556C158.218 39.2284 158.233 39.1922 158.233 39.1547V36.3943C158.233 36.3081 158.185 36.2659 158.089 36.2675C155.635 36.2797 153.01 36.4991 151.013 37.9232C150.941 37.9752 150.864 37.9809 150.782 37.9403C149.665 37.3916 148.426 36.7747 147.263 36.4821C144.235 35.7131 141.583 36.1683 139.308 37.8476C134.011 41.7589 134.781 50.8837 140.999 53.7782C144.796 55.5437 147.87 54.2854 151.261 52.4127C151.276 52.4045 151.294 52.4002 151.311 52.4003C151.329 52.4004 151.346 52.4049 151.361 52.4132C151.376 52.4215 151.388 52.4334 151.396 52.4475C151.404 52.4616 151.407 52.4774 151.406 52.4931ZM182.94 45.5176C182.923 44.2621 182.62 43.022 182.048 41.8681C181.476 40.7143 180.647 39.6692 179.608 38.7927C178.569 37.9161 177.34 37.2252 175.992 36.7595C174.644 36.2937 173.202 36.0621 171.75 36.078C170.298 36.0939 168.863 36.3569 167.528 36.8521C166.193 37.3472 164.983 38.0648 163.968 38.9638C162.953 39.8628 162.153 40.9256 161.613 42.0917C161.073 43.2577 160.804 44.504 160.821 45.7595C160.838 47.0151 161.142 48.2551 161.713 49.409C162.285 50.5629 163.114 51.6079 164.153 52.4845C165.192 53.361 166.421 54.0519 167.769 54.5177C169.117 54.9835 170.559 55.215 172.011 55.1991C173.463 55.1833 174.898 54.9202 176.233 54.4251C177.568 53.9299 178.778 53.2124 179.793 52.3134C180.808 51.4144 181.608 50.3515 182.148 49.1855C182.688 48.0195 182.957 46.7731 182.94 45.5176Z" fill="#012D46"/>
<path d="M143.513 51.1056C139.232 49.7157 138.78 43.0099 141.664 40.4397C143.027 39.2238 144.787 38.7881 146.942 39.1327C151.011 39.7838 151.623 44.2389 150.967 47.2333C150.662 48.6282 150.194 49.7035 148.889 50.5497C147.317 51.5738 145.525 51.7592 143.513 51.1056Z" fill="#012D46"/>
<path d="M84.159 79.9331L133.629 83.4395L135.31 83.5587L183.099 86.946C183.122 86.9478 183.145 86.9454 183.166 86.939C183.188 86.9326 183.208 86.9223 183.225 86.9088C183.242 86.8953 183.255 86.8789 183.264 86.8606C183.273 86.8423 183.278 86.8225 183.278 86.8026V11.2532C183.278 11.2333 183.273 11.2135 183.264 11.1952C183.255 11.1769 183.242 11.1605 183.225 11.147C183.208 11.1335 183.188 11.1232 183.166 11.1168C183.145 11.1104 183.122 11.108 183.099 11.1098L135.31 14.5268L133.629 14.647L84.159 18.1842C84.118 18.1874 84.0798 18.2039 84.052 18.2305C84.0242 18.2571 84.0089 18.2917 84.0091 18.3277V24.416C84.0091 24.4348 84.0048 24.4535 83.9965 24.4709C83.9883 24.4883 83.9761 24.5041 83.9609 24.5174C83.9456 24.5307 83.9274 24.5413 83.9074 24.5485C83.8875 24.5557 83.8661 24.5594 83.8444 24.5594L81.6747 24.5415C81.631 24.5415 81.5891 24.5264 81.5582 24.4995C81.5274 24.4726 81.51 24.4361 81.51 24.398V16.2735C81.5098 16.2375 81.5252 16.2029 81.5529 16.1763C81.5807 16.1498 81.6189 16.1332 81.66 16.13L185.851 8.73031C185.873 8.72853 185.896 8.73091 185.918 8.73732C185.94 8.74373 185.96 8.75401 185.977 8.76751C185.994 8.78101 186.007 8.79743 186.016 8.81573C186.025 8.83402 186.03 8.85378 186.03 8.87374V89.2486C186.03 89.2686 186.025 89.2884 186.016 89.3067C186.007 89.325 185.994 89.3414 185.977 89.3549C185.96 89.3684 185.94 89.3787 185.918 89.3851C185.896 89.3915 185.873 89.3939 185.851 89.3921L81.66 81.9898C81.6189 81.9866 81.5807 81.9701 81.5529 81.9435C81.5252 81.917 81.5098 81.8823 81.51 81.8464V73.7141C81.51 73.6761 81.5274 73.6396 81.5582 73.6127C81.5891 73.5858 81.631 73.5707 81.6747 73.5707L83.8444 73.5681C83.8881 73.5681 83.93 73.5832 83.9609 73.6101C83.9917 73.637 84.0091 73.6735 84.0091 73.7116V79.7896C84.0089 79.8255 84.0242 79.8602 84.052 79.8868C84.0798 79.9133 84.118 79.9298 84.159 79.9331Z" fill="#FEFFFF"/>
<path d="M133.629 14.647V83.4395L135.31 83.5587V14.5268L133.629 14.647Z" fill="#FEFFFF"/>
<path d="M103.211 32.1001L99.6379 31.8856C99.5181 31.8774 99.4745 31.8222 99.5072 31.7197L100.215 29.5056C100.241 29.4254 100.294 29.3547 100.368 29.3041C100.441 29.2536 100.531 29.2259 100.624 29.2252L107.223 29.1691C107.244 29.1688 107.264 29.1722 107.284 29.1792C107.303 29.1862 107.321 29.1966 107.335 29.2098C107.35 29.223 107.362 29.2387 107.369 29.256C107.377 29.2733 107.381 29.2919 107.381 29.3105C107.264 36.6772 107.057 44.0194 107.61 51.3666C107.617 51.4608 107.672 51.5145 107.776 51.5275L110.428 51.8713C110.546 51.8876 110.604 51.9485 110.603 52.0542L110.562 54.9243C110.56 54.9942 110.52 55.0275 110.442 55.0243C108.555 54.9462 107.049 54.7008 105.924 54.2879C103.641 53.4515 103.331 50.9179 103.326 49.128C103.311 43.4984 103.319 37.8671 103.35 32.2343C103.35 32.1513 103.304 32.1066 103.211 32.1001Z" fill="#FEFFFF"/>
<path d="M13.0345 51.6787L13.0372 32.2489C13.0373 32.2143 13.0228 32.181 12.9965 32.1556C12.9702 32.1303 12.9341 32.1148 12.8956 32.1123L9.23255 31.8709C9.20996 31.8695 9.188 31.8636 9.16828 31.8536C9.14855 31.8437 9.13156 31.8299 9.11852 31.8133C9.10548 31.7967 9.09672 31.7778 9.09289 31.7578C9.08906 31.7378 9.09025 31.7173 9.09638 31.6978L9.83988 29.352C9.84881 29.3232 9.86803 29.2978 9.8946 29.2798C9.92116 29.2617 9.9536 29.252 9.98695 29.252L30.0099 29.1788C30.0503 29.1788 30.0891 29.1932 30.1177 29.2188C30.1463 29.2444 30.1624 29.2792 30.1624 29.3154V35.0702C30.1624 35.1064 30.1463 35.1411 30.1177 35.1668C30.0891 35.1924 30.0503 35.2068 30.0099 35.2068L26.8016 35.1994C26.7616 35.1994 26.7232 35.1854 26.6947 35.1603C26.6662 35.1352 26.6498 35.1011 26.6491 35.0653L26.5783 32.3513C26.5776 32.3155 26.5612 32.2814 26.5327 32.2563C26.5041 32.2312 26.4658 32.2172 26.4258 32.2172L17.2423 32.2221C17.2222 32.2221 17.2024 32.2256 17.1839 32.2324C17.1654 32.2393 17.1486 32.2494 17.1344 32.262C17.1202 32.2747 17.109 32.2898 17.1014 32.3064C17.0937 32.3229 17.0897 32.3407 17.0897 32.3586V40.2812C17.0897 40.2992 17.0937 40.3169 17.1014 40.3335C17.109 40.35 17.1202 40.3651 17.1344 40.3778C17.1486 40.3905 17.1654 40.4005 17.1839 40.4074C17.2024 40.4142 17.2222 40.4178 17.2423 40.4178L27.1366 40.3836C27.1571 40.3836 27.1774 40.3873 27.1963 40.3945C27.2151 40.4016 27.2322 40.4121 27.2464 40.4253C27.2607 40.4385 27.2718 40.4542 27.2791 40.4713C27.2864 40.4884 27.2898 40.5067 27.2891 40.5251L27.1666 43.2708C27.1651 43.3062 27.1485 43.3397 27.12 43.3642C27.0916 43.3888 27.0536 43.4025 27.014 43.4025L17.294 43.4049C17.2536 43.4049 17.2148 43.4193 17.1862 43.4449C17.1576 43.4705 17.1415 43.5053 17.1415 43.5415L17.087 51.6811C17.087 51.7173 17.1031 51.7521 17.1317 51.7777C17.1603 51.8033 17.1991 51.8177 17.2395 51.8177L27.0794 51.8201C27.1199 51.8201 27.1586 51.8057 27.1873 51.7801C27.2159 51.7545 27.2319 51.7198 27.2319 51.6835L27.2374 48.7866C27.2374 48.7504 27.2534 48.7157 27.282 48.6901C27.3106 48.6645 27.3494 48.6501 27.3899 48.6501L30.7588 48.6476C30.7993 48.6476 30.8381 48.662 30.8667 48.6876C30.8953 48.7132 30.9113 48.748 30.9113 48.7842V54.7292C30.9113 54.7654 30.8953 54.8002 30.8667 54.8258C30.8381 54.8514 30.7993 54.8658 30.7588 54.8658H9.64379C9.60334 54.8658 9.56455 54.8514 9.53595 54.8258C9.50735 54.8002 9.49128 54.7654 9.49128 54.7292L9.49672 51.9932C9.49672 51.9574 9.51241 51.9231 9.54043 51.8975C9.56844 51.872 9.60654 51.8573 9.64651 51.8567L12.8847 51.8152C12.9247 51.8146 12.9628 51.7999 12.9908 51.7744C13.0188 51.7488 13.0345 51.7145 13.0345 51.6787Z" fill="#FEFFFF"/>
<path d="M126.41 43.2221C126.186 42.2532 125.856 41.3071 125.418 40.3837C124.065 37.5331 118.168 39.5327 116.003 40.4105C115.934 40.4389 115.854 40.4424 115.782 40.4202C115.71 40.3979 115.649 40.3517 115.614 40.291L114.426 38.25C114.388 38.1834 114.405 38.1313 114.478 38.094C118.177 36.1773 123.373 35.0166 127.248 37.1868C129.275 38.3232 129.879 40.2252 130.089 42.4515C130.374 45.5077 130.412 48.5689 130.203 51.6348C130.199 51.6987 130.223 51.7617 130.269 51.81C130.316 51.8584 130.383 51.8883 130.454 51.8933L133.126 52.0738C133.161 52.0756 133.194 52.0896 133.218 52.1128C133.242 52.136 133.254 52.1666 133.254 52.1981L133.205 54.8024C133.203 54.9373 133.127 54.9991 132.976 54.9877L126.93 54.4952C126.884 54.4919 126.841 54.474 126.808 54.4446C126.775 54.4152 126.755 54.3761 126.75 54.3342L126.551 52.264C126.549 52.2415 126.54 52.22 126.525 52.2018C126.51 52.1837 126.489 52.1697 126.466 52.1614C126.442 52.153 126.417 52.1507 126.392 52.1546C126.367 52.1585 126.344 52.1685 126.325 52.1835C123.389 54.5732 120.099 56.3704 116.104 54.4318C114.421 53.6173 113.285 51.8762 113.133 50.1425C112.58 43.8683 121.586 43.7512 126.282 43.3733C126.387 43.3651 126.43 43.3147 126.41 43.2221ZM120.271 52.4078C124.71 52.6931 126.148 48.6404 126.682 45.5923C126.691 45.537 126.665 45.5102 126.603 45.5118C124.138 45.6142 117.776 45.8337 117.087 48.7233C116.654 50.5351 118.228 52.2762 120.271 52.4078Z" fill="#FEFFFF"/>
<path d="M46.5304 49.2646C44.259 47.4235 41.1679 46.4506 38.4199 45.346C37.523 44.9867 36.774 44.4275 36.1731 43.6683C33.6893 40.5324 36.3882 37.1673 39.9941 36.3724C42.9844 35.714 48.287 35.9627 49.5534 38.9571C49.8839 39.7342 50.1299 40.7169 50.2915 41.9053C50.3024 41.9882 50.2615 42.0296 50.1689 42.0296L47.4673 42.0321C47.3548 42.032 47.2446 42.0033 47.1496 41.9493C47.0546 41.8954 46.9787 41.8183 46.9307 41.7272C46.3234 40.5568 45.3484 39.3449 43.8641 39.0522C42.3036 38.7426 39.0354 39.2912 39.3268 41.3151C39.4657 42.2905 40.5905 42.9124 41.5546 43.2586C43.3757 43.9105 45.1959 44.5681 47.0152 45.2313C50.9015 46.6505 52.0999 50.9081 48.7881 53.5124C46.2689 55.4949 42.2055 55.6315 39.1335 54.8633C38.0041 54.5805 37.1735 54.2838 36.6415 53.9733C34.8903 52.9491 34.3565 50.8203 34.2503 49.0207C34.2448 48.9346 34.2902 48.8915 34.3865 48.8915L37.178 48.8939C37.2315 48.8938 37.2841 48.9067 37.3301 48.9312C37.3761 48.9557 37.4139 48.9908 37.4395 49.0329C38.2374 50.3595 38.7957 51.586 40.2828 52.0225C42.3962 52.6419 47.0751 52.4688 46.6393 49.4499C46.6284 49.3768 46.5921 49.315 46.5304 49.2646Z" fill="#FEFFFF"/>
<path d="M68.8247 39.9203C64.1866 38.4377 59.2135 39.1058 58.1242 44.1291C57.013 49.2426 61.7082 53.2588 67.3376 51.7493C68.8446 51.3445 70.2754 50.8154 71.6298 50.1619C71.6578 50.1485 71.6883 50.1402 71.7198 50.1374C71.7512 50.1346 71.7829 50.1373 71.8131 50.1455C71.8432 50.1536 71.8712 50.1671 71.8953 50.1849C71.9195 50.2028 71.9394 50.2248 71.9539 50.2497L73.2666 52.5443C73.3175 52.6321 73.2966 52.7036 73.204 52.7589C70.8101 54.1683 67.9504 55.1998 65.1289 55.2315C60.0796 55.29 55.3953 52.3541 54.2269 47.9453C53.0367 43.4609 55.2101 39.0888 59.9625 37.0868C63.6719 35.5229 67.3803 35.6781 71.0878 37.5525C72.3216 38.1768 72.9316 41.0688 73.1032 42.2198C73.1159 42.3043 73.0751 42.349 72.9807 42.3539L69.6662 42.5221C69.5807 42.5259 69.4967 42.5009 69.4311 42.4521C69.3654 42.4033 69.323 42.3342 69.3122 42.2588L68.999 40.1129C68.9844 40.017 68.9263 39.9528 68.8247 39.9203Z" fill="#FEFFFF"/>
<path d="M98.3061 45.6359C98.3111 48.1691 97.1523 50.6004 95.0847 52.3949C93.0171 54.1894 90.2101 55.2001 87.2811 55.2047C84.3522 55.2093 81.5412 54.2073 79.4667 52.4193C77.3921 50.6313 76.2238 48.2037 76.2189 45.6705C76.214 43.1372 77.3727 40.706 79.4403 38.9115C81.5079 37.117 84.3149 36.1063 87.2439 36.1017C90.1728 36.0971 92.9838 37.099 95.0583 38.8871C97.1329 40.6751 98.3012 43.1027 98.3061 45.6359ZM87.3252 52.1634C88.2518 52.1533 89.167 51.9729 90.0185 51.6324C90.8701 51.292 91.6413 50.7982 92.2882 50.1792C92.935 49.5603 93.4449 48.8283 93.7885 48.0251C94.1322 47.2219 94.3031 46.3632 94.2913 45.498C94.2794 44.6328 94.0852 43.7781 93.7197 42.9826C93.3542 42.1872 92.8246 41.4666 92.161 40.862C91.4975 40.2574 90.713 39.7806 89.8524 39.4589C88.9918 39.1371 88.072 38.9767 87.1454 38.9869C86.2188 38.997 85.3036 39.1775 84.452 39.5179C83.6005 39.8584 82.8292 40.3522 82.1824 40.9711C81.5355 41.5901 81.0257 42.322 80.682 43.1252C80.3383 43.9285 80.1675 44.7872 80.1793 45.6523C80.1911 46.5175 80.3853 47.3723 80.7508 48.1677C81.1163 48.9632 81.6459 49.6838 82.3095 50.2884C82.9731 50.893 83.7575 51.3698 84.6181 51.6915C85.4787 52.0132 86.3986 52.1736 87.3252 52.1634Z" fill="#FEFFFF"/>
<path d="M151.406 52.4932C151.407 52.4775 151.404 52.4617 151.396 52.4476C151.388 52.4335 151.376 52.4216 151.361 52.4133C151.346 52.4049 151.329 52.4005 151.311 52.4004C151.294 52.4003 151.276 52.4045 151.261 52.4127C147.871 54.2855 144.796 55.5437 140.999 53.7783C134.782 50.8838 134.011 41.759 139.308 37.8477C141.583 36.1684 144.235 35.7132 147.263 36.4821C148.426 36.7747 149.665 37.3917 150.782 37.9403C150.864 37.981 150.941 37.9753 151.013 37.9233C153.01 36.4992 155.635 36.2797 158.089 36.2675C158.185 36.2659 158.233 36.3082 158.233 36.3943V39.1547C158.233 39.1923 158.218 39.2284 158.189 39.2557C158.161 39.2829 158.122 39.2991 158.081 39.301L155.3 39.4205C155.237 39.4236 155.179 39.4481 155.136 39.4889C155.092 39.5298 155.069 39.5838 155.069 39.64C155.118 44.7973 155.314 50.0669 154.881 55.234C154.453 60.3475 149.366 62.5446 144.207 62.2837C141.858 62.165 139.72 61.7748 137.794 61.1132C137.774 61.1063 137.755 61.0958 137.739 61.0824C137.724 61.0689 137.711 61.0528 137.703 61.0348C137.694 61.0169 137.69 60.9976 137.689 60.978C137.689 60.9584 137.693 60.9389 137.701 60.9206L138.823 58.4553C138.842 58.414 138.877 58.3803 138.922 58.3601C138.967 58.34 139.019 58.3348 139.068 58.3455C142.219 59.0624 147.516 60.35 149.861 57.4043C150.845 56.168 151.242 54.0928 151.406 52.4932ZM143.513 51.1057C145.525 51.7592 147.317 51.5739 148.889 50.5497C150.194 49.7036 150.662 48.6282 150.967 47.2334C151.623 44.2389 151.011 39.7838 146.942 39.1328C144.787 38.7881 143.027 39.2238 141.664 40.4398C138.78 43.0099 139.232 49.7158 143.513 51.1057Z" fill="#FEFFFF"/>
<path d="M182.94 45.5176C182.957 46.7731 182.688 48.0195 182.148 49.1855C181.608 50.3515 180.808 51.4144 179.793 52.3134C178.778 53.2124 177.568 53.93 176.233 54.4251C174.898 54.9203 173.463 55.1833 172.011 55.1992C170.559 55.2151 169.117 54.9835 167.769 54.5177C166.421 54.0519 165.192 53.361 164.153 52.4845C163.114 51.6079 162.285 50.5629 161.713 49.409C161.142 48.2552 160.839 47.0151 160.821 45.7596C160.804 44.5041 161.073 43.2577 161.613 42.0917C162.153 40.9257 162.953 39.8628 163.968 38.9638C164.983 38.0648 166.193 37.3472 167.528 36.8521C168.863 36.3569 170.298 36.0939 171.75 36.078C173.202 36.0621 174.644 36.2937 175.992 36.7595C177.341 37.2253 178.569 37.9162 179.608 38.7927C180.647 39.6693 181.476 40.7143 182.048 41.8682C182.62 43.022 182.923 44.2621 182.94 45.5176ZM172.106 52.1583C173.978 52.1056 175.749 51.3623 177.029 50.0919C178.31 48.8214 178.995 47.1279 178.934 45.3839C178.903 44.5204 178.691 43.6704 178.308 42.8826C177.925 42.0948 177.38 41.3845 176.703 40.7923C176.026 40.2001 175.231 39.7377 174.363 39.4313C173.495 39.1249 172.571 38.9807 171.644 39.0067C169.772 39.0594 168.001 39.8027 166.721 41.0732C165.44 42.3436 164.755 44.0371 164.817 45.7811C164.847 46.6447 165.06 47.4946 165.442 48.2825C165.825 49.0703 166.37 49.7806 167.047 50.3727C167.724 50.9649 168.519 51.4274 169.387 51.7337C170.255 52.0401 171.179 52.1844 172.106 52.1583Z" fill="#FEFFFF"/>
<path d="M80.1793 45.6523C80.229 49.2909 83.4283 52.206 87.3252 52.1634C91.2221 52.1208 94.3409 49.1366 94.2913 45.4979C94.2416 41.8593 91.0423 38.9442 87.1454 38.9869C83.2485 39.0295 80.1297 42.0137 80.1793 45.6523Z" fill="#012D46"/>
<path d="M164.817 45.7811C164.944 49.4128 168.208 52.2679 172.106 52.1583C176.004 52.0486 179.061 49.0156 178.934 45.3839C178.806 41.7522 175.543 38.897 171.644 39.0067C167.746 39.1164 164.689 42.1494 164.817 45.7811Z" fill="#012D46"/>
<path d="M126.682 45.5923C126.148 48.6404 124.71 52.6931 120.271 52.4078C118.228 52.2761 116.654 50.5351 117.087 48.7233C117.776 45.8337 124.138 45.6142 126.603 45.5118C126.665 45.5102 126.691 45.537 126.682 45.5923Z" fill="#012D46"/>
</g>
<defs>
<clipPath id="clip0_5_5">
<rect width="195" height="109" fill="white"/>
</clipPath>
</defs>
</svg>
